<?xml version="1.0" encoding="utf-8"?>
<!-- Generator: Adobe Illustrator 25.2.2, SVG Export Plug-In . SVG Version: 6.00 Build 0)  -->
<svg version="1.1" id="Layer_1" xmlns="http://www.w3.org/2000/svg" xmlns:xlink="http://www.w3.org/1999/xlink" x="0px" y="0px"
	 viewBox="0 0 52.43 52.43" style="enable-background:new 0 0 52.43 52.43;" xml:space="preserve">
<style type="text/css">
	.st0{fill:#C61F50;}
	.st1{fill:#FFFFFF;}
	.st2{fill:#8C1042;}
	.st3{fill:#9E1047;}
	.st4{fill:#A32B5C;}
	.st5{fill:#9E1E49;}
	.st6{fill:#BBC0E6;}
	.st7{fill:#D0D4F6;}
	.st8{fill:#E9EFFF;}
	.st9{fill:#DB465D;}
	.st10{fill:#5555C6;}
	.st11{fill:#E9EDF7;}
	.st12{fill:#302F2E;}
	.st13{fill:#DDE2F8;}
	.st14{fill:#CED3F8;}
	.st15{fill:#A3A9D0;}
	.st16{fill:#5652CC;}
	.st17{fill:#231633;}
	.st18{fill:#2F1F40;}
	.st19{fill:#323B99;}
	.st20{fill:#20196F;}
	.st21{fill:#F6F6FB;}
	.st22{fill:#FCBA06;}
	.st23{fill:#E19100;}
	.st24{fill:#F8D8D0;}
	.st25{fill:#292533;}
	.st26{fill:#3B46A0;}
	.st27{fill:#FFD03E;}
	.st28{fill:#807DFB;}
	.st29{fill:url(#Path_18_1_);}
	.st30{fill:url(#Path_19_1_);}
	.st31{fill:url(#Path_20_1_);}
	.st32{fill:url(#Path_21_1_);}
	.st33{fill:url(#Path_22_1_);}
	.st34{fill:url(#Path_68_1_);}
</style>
<g id="Group_79" transform="translate(32.37 0.909)">
	<path id="Path_48" class="st1" d="M20.06,23.15c0,15.67-12.7,28.37-28.37,28.38c-9.78,0-18.87-5.04-24.06-13.33
		c13.29,8.31,30.79,4.27,39.1-9.01c5.76-9.2,5.76-20.89,0-30.09C15.02,4.27,20.06,13.37,20.06,23.15z"/>
	<g id="Group_78" transform="translate(2.848 3.307)">
		<path id="Path_49" class="st1" d="M-18.53,5.41l1.31,2.4c0.7,1.28,1.75,2.33,3.03,3.03l2.4,1.31l-2.4,1.31
			c-1.28,0.7-2.33,1.75-3.03,3.03l-1.31,2.4l-1.31-2.4c-0.7-1.28-1.75-2.33-3.03-3.03l-2.4-1.31l2.4-1.31
			c1.28-0.7,2.33-1.75,3.03-3.03L-18.53,5.41z"/>
		<path id="Path_50" class="st1" d="M-8.08,19.17l0.67,1.22c0.36,0.65,0.89,1.19,1.54,1.54l1.22,0.67l-1.22,0.67
			c-0.65,0.36-1.19,0.89-1.54,1.54l-0.67,1.22l-0.67-1.22c-0.36-0.65-0.89-1.19-1.54-1.54l-1.22-0.67l1.22-0.67
			c0.65-0.36,1.19-0.89,1.54-1.54L-8.08,19.17z"/>
		<path id="Path_51" class="st1" d="M-25.27,20.93l0.32,0.58c0.17,0.32,0.43,0.58,0.75,0.75l0.58,0.32l-0.58,0.32
			c-0.32,0.17-0.58,0.43-0.75,0.75l-0.32,0.58l-0.32-0.58c-0.17-0.32-0.43-0.58-0.75-0.75l-0.58-0.32l0.58-0.32
			c0.32-0.17,0.58-0.43,0.75-0.75L-25.27,20.93z"/>
	</g>
</g>
</svg>
