<svg id="Layer_1" data-name="Layer 1" xmlns="http://www.w3.org/2000/svg" xmlns:xlink="http://www.w3.org/1999/xlink" viewBox="0 0 150.47 98.04"><defs><style>.cls-1{fill:#fff;}.cls-2{fill:url(#linear-gradient);}</style><linearGradient id="linear-gradient" x1="50.29" y1="34.84" x2="98.23" y2="34.84" gradientUnits="userSpaceOnUse"><stop offset="0.03" stop-color="#7c51a0"/><stop offset="0.51" stop-color="#a43593"/><stop offset="1" stop-color="#ec1651"/></linearGradient></defs><path class="cls-1" d="M19.86,80.87V67.6h7.62a4.49,4.49,0,0,1,3,1,3.28,3.28,0,0,1,1.12,2.63A3.75,3.75,0,0,1,30.56,74a3.87,3.87,0,0,1-2.87,1.08H21.51v5.8Zm1.65-7.36h5.86A2.82,2.82,0,0,0,29.26,73a2,2,0,0,0,.65-1.62,2.09,2.09,0,0,0-.65-1.63,2.59,2.59,0,0,0-1.81-.59H21.51Z"/><path class="cls-1" d="M32.08,80.87l6.5-13.27H40l6.58,13.27H44.74l-1.8-3.57H35.6l-1.75,3.57Zm4.28-5.12H42.2l-2.93-5.88Z"/><path class="cls-1" d="M49.14,78.88l1-1.43A11.37,11.37,0,0,0,53,79.12a8.55,8.55,0,0,0,3,.58,5.15,5.15,0,0,0,3-.79,2.33,2.33,0,0,0,1.15-2,2,2,0,0,0-.82-1.61,4.28,4.28,0,0,0-2.28-.75c-.24,0-.57,0-1-.07a15.15,15.15,0,0,1-4.47-.77,3.52,3.52,0,0,1-1.4-1.15A2.75,2.75,0,0,1,49.72,71a3.12,3.12,0,0,1,1.43-2.64,6.17,6.17,0,0,1,3.71-1,10,10,0,0,1,3.28.55,11.16,11.16,0,0,1,3.07,1.61l-1,1.37a9.35,9.35,0,0,0-2.58-1.48,8,8,0,0,0-2.78-.5,4.74,4.74,0,0,0-2.48.58,1.7,1.7,0,0,0-1,1.46,1.34,1.34,0,0,0,.15.64,2,2,0,0,0,.48.54,7.43,7.43,0,0,0,3.54.78c.83,0,1.48.1,1.93.16a5.54,5.54,0,0,1,3.2,1.3A3.4,3.4,0,0,1,61.92,77,3.68,3.68,0,0,1,60.31,80a7,7,0,0,1-4.24,1.2,11.51,11.51,0,0,1-3.69-.57A11.19,11.19,0,0,1,49.14,78.88Z"/><path class="cls-1" d="M67,80.87V67.6h1.67v5.24h7.83V67.6h1.66V80.87H76.46v-6.5H68.63v6.5Z"/><path class="cls-1" d="M85.28,67.6v8.6A3.72,3.72,0,0,0,86.06,79a4.7,4.7,0,0,0,3,.7,4.7,4.7,0,0,0,3-.7,3.77,3.77,0,0,0,.77-2.77V67.6h1.66v9a4.35,4.35,0,0,1-1.28,3.52,6.55,6.55,0,0,1-4.19,1.06,6.56,6.56,0,0,1-4.2-1.06,4.35,4.35,0,0,1-1.28-3.52v-9Z"/><path class="cls-1" d="M105.78,67.6a7,7,0,0,1,5.06,1.85,6.39,6.39,0,0,1,1.92,4.82,6.32,6.32,0,0,1-1.89,4.8,7.08,7.08,0,0,1-5.09,1.8h-5.69V67.6Zm0,1.52h-4V79.35h4A5.27,5.27,0,0,0,109.64,78a5.58,5.58,0,0,0,0-7.44A5.25,5.25,0,0,0,105.78,69.12Z"/><path class="cls-1" d="M117.5,80.87V67.6h1.67v5.24H127V67.6h1.66V80.87H127v-6.5h-7.83v6.5Z"/><path class="cls-1" d="M20.44,92.08V88.23h3v.44H20.92V89.8h1.54v.44H20.92v1.4h2.71v.44Z"/><path class="cls-1" d="M25.55,92.08V88.67H23.93v-.44h3.72v.44H26v3.41Z"/><path class="cls-1" d="M28.4,92.08V88.23h.48v1.52h2.27V88.23h.49v3.85h-.49V90.19H28.88v1.89Z"/><path class="cls-1" d="M33.34,92.08V88.23h.25l2.5,2.88V88.23h.48v3.85h-.24L33.82,89.2v2.88Z"/><path class="cls-1" d="M38.26,92.08V88.2h.49v3.88Z"/><path class="cls-1" d="M43.52,90.85l.38.29a1.91,1.91,0,0,1-.72.77,2.05,2.05,0,0,1-1,.27,1.93,1.93,0,0,1-1.43-.57,2,2,0,0,1,2.4-3.23,1.76,1.76,0,0,1,.72.66l-.4.29a1.31,1.31,0,0,0-.53-.54,1.49,1.49,0,0,0-.76-.2,1.44,1.44,0,0,0-1.08.45,1.56,1.56,0,0,0-.42,1.12,1.58,1.58,0,0,0,.42,1.13,1.47,1.47,0,0,0,1.08.44,1.49,1.49,0,0,0,.81-.22A1.71,1.71,0,0,0,43.52,90.85Z"/><path class="cls-1" d="M47.85,91.5l.28-.42a2.93,2.93,0,0,0,.85.49,2.49,2.49,0,0,0,.87.17,1.52,1.52,0,0,0,.87-.23.67.67,0,0,0,.33-.58.58.58,0,0,0-.23-.47,1.33,1.33,0,0,0-.67-.22l-.29,0A4.32,4.32,0,0,1,48.57,90a1.07,1.07,0,0,1-.41-.33.76.76,0,0,1-.14-.46.9.9,0,0,1,.41-.77,1.81,1.81,0,0,1,1.08-.3,2.83,2.83,0,0,1,1,.16,3.37,3.37,0,0,1,.9.47l-.28.4a2.59,2.59,0,0,0-.75-.43,2.24,2.24,0,0,0-.81-.15,1.42,1.42,0,0,0-.72.17.49.49,0,0,0-.28.43.39.39,0,0,0,0,.18.52.52,0,0,0,.14.16,2.14,2.14,0,0,0,1,.22l.56,0a1.58,1.58,0,0,1,.93.38,1,1,0,0,1,.34.76,1.07,1.07,0,0,1-.47.89,2,2,0,0,1-1.23.35A3.38,3.38,0,0,1,48.79,92,3.2,3.2,0,0,1,47.85,91.5Z"/><path class="cls-1" d="M53,92.08V88.2h.49v3.88Z"/><path class="cls-1" d="M55.21,92.08V88.23h.48v3.41h2.52v.44Z"/><path class="cls-1" d="M59.32,92.08V88.22h.48v1.92L62,88.22h.63l-1.56,1.37,1.8,2.49H62.3l-1.57-2.16-.93.79v1.37Z"/><path class="cls-1" d="M63.68,91.5l.28-.42a3.06,3.06,0,0,0,.85.49,2.54,2.54,0,0,0,.88.17,1.51,1.51,0,0,0,.86-.23.68.68,0,0,0,.34-.58.57.57,0,0,0-.24-.47,1.32,1.32,0,0,0-.66-.22l-.3,0A4.32,4.32,0,0,1,64.4,90a1.07,1.07,0,0,1-.41-.33.83.83,0,0,1-.14-.46.93.93,0,0,1,.41-.77,1.81,1.81,0,0,1,1.08-.3,2.83,2.83,0,0,1,1,.16,3.37,3.37,0,0,1,.9.47l-.28.4a2.59,2.59,0,0,0-.75-.43,2.24,2.24,0,0,0-.81-.15,1.42,1.42,0,0,0-.72.17.49.49,0,0,0-.28.43.39.39,0,0,0,0,.18.52.52,0,0,0,.14.16,2.14,2.14,0,0,0,1,.22l.56,0a1.58,1.58,0,0,1,.93.38,1,1,0,0,1,.34.76,1,1,0,0,1-.47.89,2,2,0,0,1-1.23.35A3.38,3.38,0,0,1,64.62,92,3.2,3.2,0,0,1,63.68,91.5Z"/><path class="cls-1" d="M69.47,91.54a.25.25,0,0,1,.2.09.32.32,0,0,1,.08.24.29.29,0,0,1-.08.22.25.25,0,0,1-.2.09.26.26,0,0,1-.21-.09.29.29,0,0,1-.09-.22.34.34,0,0,1,.09-.24A.29.29,0,0,1,69.47,91.54Z"/><path class="cls-1" d="M74.69,92.08V88.23h3v.44H75.17V89.8h1.54v.44H75.17v1.4h2.71v.44Z"/><path class="cls-1" d="M79.8,92.08V88.67H78.18v-.44H81.9v.44H80.28v3.41Z"/><path class="cls-1" d="M82.65,92.08V88.23h3v.44H83.12V89.8h1.55v.44H83.12v1.4h2.71v.44Z"/><path class="cls-1" d="M87.06,92.08V88.23h2.21a1.28,1.28,0,0,1,.89.28,1,1,0,0,1,.32.79,1,1,0,0,1-.25.71,1.11,1.11,0,0,1-.66.38l1,1.69H90l-1-1.69h-1.5v1.69Zm.48-2.14h1.7a.8.8,0,0,0,.55-.16.56.56,0,0,0,.19-.47.58.58,0,0,0-.19-.47.76.76,0,0,0-.52-.17H87.54Z"/><path class="cls-1" d="M91.89,92.08V88.23h.25l2.5,2.88V88.23h.48v3.85h-.24L92.37,89.2v2.88Z"/><path class="cls-1" d="M96.23,92.08l1.89-3.85h.4l1.91,3.85h-.52l-.53-1H97.25l-.51,1Zm1.24-1.49h1.7l-.85-1.7Z"/><path class="cls-1" d="M101.55,92.08V88.23H102v3.41h2.51v.44Z"/><path class="cls-1" d="M108.21,91.5l.28-.42a3.06,3.06,0,0,0,.85.49,2.54,2.54,0,0,0,.88.17,1.51,1.51,0,0,0,.86-.23.66.66,0,0,0,.34-.58.57.57,0,0,0-.24-.47,1.32,1.32,0,0,0-.66-.22l-.3,0a4.32,4.32,0,0,1-1.29-.22,1.07,1.07,0,0,1-.41-.33.83.83,0,0,1-.14-.46.93.93,0,0,1,.41-.77,1.81,1.81,0,0,1,1.08-.3,2.83,2.83,0,0,1,.95.16,3.23,3.23,0,0,1,.9.47l-.28.4a2.59,2.59,0,0,0-.75-.43,2.24,2.24,0,0,0-.81-.15,1.42,1.42,0,0,0-.72.17.49.49,0,0,0-.28.43.39.39,0,0,0,0,.18.52.52,0,0,0,.14.16,2.14,2.14,0,0,0,1,.22l.56,0a1.58,1.58,0,0,1,.93.38,1,1,0,0,1,.34.76,1,1,0,0,1-.47.89,2,2,0,0,1-1.23.35,3.38,3.38,0,0,1-1.07-.17A3.2,3.2,0,0,1,108.21,91.5Z"/><path class="cls-1" d="M114.05,92.08V88.67h-1.62v-.44h3.73v.44h-1.62v3.41Z"/><path class="cls-1" d="M117.7,92.08V90.15L116,88.23h.6L118,89.75l1.37-1.52h.61l-1.75,1.93v1.92Z"/><path class="cls-1" d="M120.69,92.08V88.23h.47v3.41h2.52v.44Z"/><path class="cls-1" d="M124.8,92.08V88.23h3v.44h-2.56V89.8h1.55v.44h-1.55v1.4H128v.44Z"/><path class="cls-2" d="M98.23,34.85a24,24,0,0,0-24-24A23.67,23.67,0,0,0,65,12.74a24,24,0,0,0,7.87,46c3-.78,3.89-4.51,1.6-9.05a28.63,28.63,0,0,0-3-5c-3.75-5.33-7.07-8.64-8.61-11.09-3-4.65-2.58-8.4-.38-11.17,3.11-3.93,9.77-3.78,13.91-.67s1.18,6.06,1.18,6.06l1.28-.2c0,1.91,4.83,5.88,4.83,5.88s-.17.83-.83.83c-.34,0-5-4-8.14-6.7-.89-.78-4.29-3.47-6.19-3-4.1,1.06-3.22,4-1.79,6.32a44.84,44.84,0,0,0,5.09,5.6c1.11,1.06,2.23,2.06,3.2,3A58,58,0,0,1,84.2,50.22a22.72,22.72,0,0,1,2.46,5.15A24,24,0,0,0,98.23,34.85Z"/></svg>