<svg xmlns="http://www.w3.org/2000/svg" xmlns:xlink="http://www.w3.org/1999/xlink" width="34" height="34" viewBox="0 0 34 34"><defs><style>.a{fill:#fff;}.b{fill:url(#a);}</style><linearGradient id="a" y1="0.5" x2="1" y2="0.5" gradientUnits="objectBoundingBox"><stop offset="0.03" stop-color="#5f3f91"/><stop offset="0.506" stop-color="#8c2483"/><stop offset="1" stop-color="#e4003f"/></linearGradient></defs><g transform="translate(-703 -1744)"><circle class="a" cx="17" cy="17" r="17" transform="translate(703 1744)"/><g transform="translate(703.292 1744)"><path class="b" d="M521.884,597.789a16.71,16.71,0,1,0-17.664,16.68c2.058-.546,2.708-3.148,1.117-6.313a20.058,20.058,0,0,0-2.086-3.513c-2.614-3.711-4.927-6.024-6-7.727-2.057-3.245-1.8-5.855-.265-7.788,2.167-2.739,6.814-2.632,9.7-.469s.821,4.227.821,4.227l.893-.144c0,1.334,3.371,4.1,3.371,4.1s-.123.576-.578.576c-.237,0-3.479-2.771-5.674-4.671-.622-.538-2.993-2.418-4.319-2.074-2.856.737-2.245,2.81-1.246,4.4a31.207,31.207,0,0,0,3.548,3.907c.77.737,1.553,1.434,2.226,2.093a40.078,40.078,0,0,1,6.384,7.424,15.883,15.883,0,0,1,1.711,3.589A16.7,16.7,0,0,0,521.884,597.789Z" transform="translate(-488.467 -581.082)"/></g></g></svg>