<svg id="Layer_1" version="1.1" data-name="Layer 1" xmlns="http://www.w3.org/2000/svg"
    xmlns:xlink="http://www.w3.org/1999/xlink" viewBox="0 0 189.16 52.7">
    <defs>
        <style>
            .cls-1 {
                fill: url(#linear-gradient);
            }

            .cls-2 {
                fill: #231f20;
            }
        </style>
        <linearGradient id="linear-gradient" y1="26.35" x2="52.74" y2="26.35" gradientUnits="userSpaceOnUse">
            <stop offset="0.03" stop-color="#7c51a0" />
            <stop offset="0.51" stop-color="#a43593" />
            <stop offset="1" stop-color="#ec1651" />
        </linearGradient>
    </defs>
    <path class="cls-1"
        d="M52.74,26.37A26.37,26.37,0,1,0,24.86,52.7c3.25-.86,4.28-5,1.77-10a31.68,31.68,0,0,0-3.3-5.54c-4.12-5.86-7.77-9.51-9.47-12.2-3.25-5.12-2.84-9.24-.42-12.29,3.42-4.32,10.75-4.15,15.3-.74S30,18.63,30,18.63l1.41-.22c0,2.1,5.32,6.47,5.32,6.47s-.19.91-.91.91c-.38,0-5.49-4.37-9-7.37-1-.85-4.72-3.82-6.81-3.28-4.51,1.17-3.55,4.44-2,7a49.05,49.05,0,0,0,5.6,6.17c1.22,1.16,2.45,2.26,3.51,3.3A63.26,63.26,0,0,1,37.31,43.28,24.89,24.89,0,0,1,40,49,26.37,26.37,0,0,0,52.74,26.37Z" />
    <path class="cls-2"
        d="M62.58,28.57V15.3H70.2a4.53,4.53,0,0,1,3,1,3.3,3.3,0,0,1,1.11,2.63,3.75,3.75,0,0,1-1.08,2.8,3.86,3.86,0,0,1-2.87,1.07H64.23v5.81Zm1.65-7.36h5.86A2.82,2.82,0,0,0,72,20.66,2,2,0,0,0,72.63,19,2.09,2.09,0,0,0,72,17.41a2.59,2.59,0,0,0-1.81-.59H64.23Z" />
    <path class="cls-2"
        d="M74.8,28.57,81.31,15.3h1.37l6.58,13.27h-1.8L85.66,25H78.32l-1.75,3.57Zm4.28-5.12h5.85L82,17.57Z" />
    <path class="cls-2"
        d="M91.86,26.58l1-1.43a11.54,11.54,0,0,0,2.93,1.67,8.57,8.57,0,0,0,3,.57,5.21,5.21,0,0,0,3-.78,2.34,2.34,0,0,0,1.15-2,1.94,1.94,0,0,0-.82-1.6,4.28,4.28,0,0,0-2.28-.75c-.24,0-.57-.05-1-.07a15.07,15.07,0,0,1-4.46-.77,3.49,3.49,0,0,1-1.41-1.15,2.75,2.75,0,0,1-.48-1.58A3.12,3.12,0,0,1,93.87,16a6.17,6.17,0,0,1,3.71-1,10.3,10.3,0,0,1,3.28.54,11.68,11.68,0,0,1,3.08,1.62l-1,1.37a9.35,9.35,0,0,0-2.58-1.48,8,8,0,0,0-2.78-.5,4.77,4.77,0,0,0-2.48.58,1.7,1.7,0,0,0-1,1.46,1.34,1.34,0,0,0,.15.64,2,2,0,0,0,.48.54,7.43,7.43,0,0,0,3.54.78c.83.05,1.48.1,1.94.16a5.59,5.59,0,0,1,3.2,1.3,3.42,3.42,0,0,1,1.17,2.63A3.65,3.65,0,0,1,103,27.72a7,7,0,0,1-4.24,1.2,10.91,10.91,0,0,1-6.93-2.34Z" />
    <path class="cls-2" d="M109.68,28.57V15.3h1.67v5.24h7.83V15.3h1.66V28.57h-1.66v-6.5h-7.83v6.5Z" />
    <path class="cls-2"
        d="M128,15.3v8.6a3.72,3.72,0,0,0,.78,2.77,7,7,0,0,0,6.09,0,3.77,3.77,0,0,0,.77-2.77V15.3h1.66v9A4.35,4.35,0,0,1,136,27.86a8.83,8.83,0,0,1-8.39,0,4.35,4.35,0,0,1-1.28-3.52v-9Z" />
    <path class="cls-2"
        d="M148.5,15.3a7,7,0,0,1,5.06,1.85A6.39,6.39,0,0,1,155.48,22a6.32,6.32,0,0,1-1.89,4.8,7.08,7.08,0,0,1-5.09,1.8h-5.69V15.3Zm0,1.52h-4V27.05h4a5.27,5.27,0,0,0,3.86-1.38A5,5,0,0,0,153.77,22a5,5,0,0,0-1.43-3.72A5.24,5.24,0,0,0,148.5,16.82Z" />
    <path class="cls-2" d="M160.22,28.57V15.3h1.68v5.24h7.82V15.3h1.66V28.57h-1.66v-6.5H161.9v6.5Z" />
    <path class="cls-2" d="M63.16,39.78V35.92h3v.45H63.64V37.5h1.54v.44H63.64v1.4h2.71v.44Z" />
    <path class="cls-2" d="M68.27,39.78V36.37H66.65v-.45h3.73v.45H68.75v3.41Z" />
    <path class="cls-2" d="M71.12,39.78V35.92h.48v1.53h2.28V35.92h.48v3.86h-.48V37.89H71.6v1.89Z" />
    <path class="cls-2" d="M76.06,39.78V35.92h.25l2.5,2.88V35.92h.48v3.86h-.24L76.54,36.9v2.88Z" />
    <path class="cls-2" d="M81,39.78V35.9h.49v3.88Z" />
    <path class="cls-2"
        d="M86.24,38.55l.38.29a1.85,1.85,0,0,1-.72.77,2.05,2.05,0,0,1-1.05.27,1.93,1.93,0,0,1-1.43-.57,2.16,2.16,0,0,1,0-2.9,1.94,1.94,0,0,1,1.43-.57,2.14,2.14,0,0,1,1,.23,1.9,1.9,0,0,1,.71.67l-.4.29a1.35,1.35,0,0,0-.52-.54,1.55,1.55,0,0,0-.77-.2,1.4,1.4,0,0,0-1.07.45,1.52,1.52,0,0,0-.43,1.12A1.55,1.55,0,0,0,83.78,39a1.43,1.43,0,0,0,1.07.44,1.49,1.49,0,0,0,.81-.22A1.71,1.71,0,0,0,86.24,38.55Z" />
    <path class="cls-2"
        d="M90.57,39.2l.28-.42a3.06,3.06,0,0,0,.85.49,2.49,2.49,0,0,0,.87.17,1.52,1.52,0,0,0,.87-.23.7.7,0,0,0,.34-.58.57.57,0,0,0-.24-.47,1.32,1.32,0,0,0-.66-.22l-.3,0a4.32,4.32,0,0,1-1.29-.22,1,1,0,0,1-.41-.34.71.71,0,0,1-.14-.45.93.93,0,0,1,.41-.77,1.81,1.81,0,0,1,1.08-.3,2.83,2.83,0,0,1,1,.16,3.37,3.37,0,0,1,.9.47l-.28.4a2.59,2.59,0,0,0-.75-.43,2.24,2.24,0,0,0-.81-.15,1.42,1.42,0,0,0-.72.17.48.48,0,0,0-.28.42.41.41,0,0,0,0,.19.52.52,0,0,0,.14.16,2.14,2.14,0,0,0,1,.22l.56,0a1.58,1.58,0,0,1,.93.38,1,1,0,0,1,.34.76,1,1,0,0,1-.47.89,2,2,0,0,1-1.23.35,3.38,3.38,0,0,1-1.07-.17A3.2,3.2,0,0,1,90.57,39.2Z" />
    <path class="cls-2" d="M95.75,39.78V35.9h.49v3.88Z" />
    <path class="cls-2" d="M97.93,39.78V35.92h.48v3.42h2.52v.44Z" />
    <path class="cls-2" d="M102,39.78V35.92h.48v1.92l2.21-1.92h.63l-1.56,1.37,1.8,2.49H105l-1.56-2.16-.94.79v1.37Z" />
    <path class="cls-2"
        d="M106.4,39.2l.28-.42a3.06,3.06,0,0,0,.85.49,2.54,2.54,0,0,0,.88.17,1.51,1.51,0,0,0,.86-.23.67.67,0,0,0,.34-.58.57.57,0,0,0-.24-.47,1.32,1.32,0,0,0-.66-.22l-.3,0a4.32,4.32,0,0,1-1.29-.22,1,1,0,0,1-.41-.34.77.77,0,0,1-.14-.45.91.91,0,0,1,.42-.77,1.76,1.76,0,0,1,1.07-.3,2.89,2.89,0,0,1,1,.16,3.31,3.31,0,0,1,.89.47l-.28.4a2.59,2.59,0,0,0-.75-.43,2.24,2.24,0,0,0-.81-.15,1.42,1.42,0,0,0-.72.17.48.48,0,0,0-.28.42.41.41,0,0,0,0,.19.7.7,0,0,0,.14.16,2.17,2.17,0,0,0,1,.22l.56,0a1.58,1.58,0,0,1,.93.38,1,1,0,0,1,.34.76,1.06,1.06,0,0,1-.46.89,2.07,2.07,0,0,1-1.24.35,3.38,3.38,0,0,1-1.07-.17A3.2,3.2,0,0,1,106.4,39.2Z" />
    <path class="cls-2"
        d="M112.19,39.24a.25.25,0,0,1,.2.09.32.32,0,0,1,.09.24.29.29,0,0,1-.09.22.25.25,0,0,1-.2.09.29.29,0,0,1-.29-.31.38.38,0,0,1,.08-.24A.29.29,0,0,1,112.19,39.24Z" />
    <path class="cls-2" d="M117.41,39.78V35.92h3v.45h-2.55V37.5h1.54v.44h-1.54v1.4h2.71v.44Z" />
    <path class="cls-2" d="M122.52,39.78V36.37H120.9v-.45h3.73v.45H123v3.41Z" />
    <path class="cls-2" d="M125.37,39.78V35.92h3v.45h-2.55V37.5h1.54v.44h-1.54v1.4h2.71v.44Z" />
    <path class="cls-2"
        d="M129.79,39.78V35.92H132a1.28,1.28,0,0,1,.88.29,1,1,0,0,1,.32.79,1,1,0,0,1-.25.71,1.11,1.11,0,0,1-.66.38l1,1.69h-.53l-1-1.69h-1.5v1.69Zm.47-2.14H132a.79.79,0,0,0,.55-.16.57.57,0,0,0,.19-.47.58.58,0,0,0-.19-.47.71.71,0,0,0-.52-.17h-1.73Z" />
    <path class="cls-2" d="M134.61,39.78V35.92h.25l2.5,2.88V35.92h.49v3.86h-.25l-2.51-2.88v2.88Z" />
    <path class="cls-2" d="M139,39.78l1.89-3.86h.4l1.91,3.86h-.52l-.53-1H140l-.51,1Zm1.24-1.49h1.7L141,36.58Z" />
    <path class="cls-2" d="M144.27,39.78V35.92h.48v3.42h2.52v.44Z" />
    <path class="cls-2"
        d="M150.93,39.2l.28-.42a3.06,3.06,0,0,0,.85.49,2.54,2.54,0,0,0,.88.17,1.56,1.56,0,0,0,.87-.23.69.69,0,0,0,.33-.58.57.57,0,0,0-.24-.47,1.32,1.32,0,0,0-.66-.22l-.3,0a4.32,4.32,0,0,1-1.29-.22,1,1,0,0,1-.41-.34.77.77,0,0,1-.14-.45.91.91,0,0,1,.42-.77,1.77,1.77,0,0,1,1.08-.3,2.87,2.87,0,0,1,1,.16,3.31,3.31,0,0,1,.89.47l-.28.4a2.59,2.59,0,0,0-.75-.43,2.24,2.24,0,0,0-.81-.15,1.42,1.42,0,0,0-.72.17.48.48,0,0,0-.28.42.32.32,0,0,0,.05.19.48.48,0,0,0,.13.16,2.17,2.17,0,0,0,1,.22l.56,0a1.55,1.55,0,0,1,.93.38,1,1,0,0,1,.34.76,1.06,1.06,0,0,1-.46.89,2.07,2.07,0,0,1-1.24.35,3.38,3.38,0,0,1-1.07-.17A3.2,3.2,0,0,1,150.93,39.2Z" />
    <path class="cls-2" d="M156.78,39.78V36.37h-1.62v-.45h3.72v.45h-1.62v3.41Z" />
    <path class="cls-2" d="M160.42,39.78V37.85l-1.73-1.93h.6l1.38,1.53L162,35.92h.61l-1.75,1.94v1.92Z" />
    <path class="cls-2" d="M163.41,39.78V35.92h.48v3.42h2.51v.44Z" />
    <path class="cls-2" d="M167.52,39.78V35.92h3v.45H168V37.5h1.54v.44H168v1.4h2.71v.44Z" />
</svg>