<svg xmlns="http://www.w3.org/2000/svg" xmlns:xlink="http://www.w3.org/1999/xlink" width="184.159" height="42.461"
    viewBox="0 0 184.159 42.461">
    <defs>
        <style>
            .a {
                fill: #ffffff;
            }

            .b {
                fill: url(#a);
            }
        </style>
        <linearGradient id="a" y1="0.5" x2="1" y2="0.5" gradientUnits="objectBoundingBox">
            <stop offset="0.03" stop-color="#7c51a0" />
            <stop offset="0.506" stop-color="#a43593" />
            <stop offset="1" stop-color="#ec1651" />
        </linearGradient>
    </defs>
    <g transform="translate(-17.153 -8.569)">
        <g transform="translate(71.401 21.492)">
            <path class="a"
                d="M62.585,35.534V19.681h9.09a5.38,5.38,0,0,1,3.641,1.149,3.942,3.942,0,0,1,1.328,3.145,4.51,4.51,0,0,1-1.285,3.345A4.643,4.643,0,0,1,71.934,28.6H64.553v6.936Zm1.968-8.788h6.992a3.387,3.387,0,0,0,2.263-.661,2.412,2.412,0,0,0,.768-1.938,2.493,2.493,0,0,0-.768-1.946,3.112,3.112,0,0,0-2.162-.7H64.553Z"
                transform="translate(-62.585 -19.336)" />
            <path class="a"
                d="M74.8,35.534l7.768-15.853H84.2L92.06,35.534H89.92l-2.153-4.265H79.007l-2.1,4.265Zm5.113-6.117H86.89l-3.5-7.023Z"
                transform="translate(-60.215 -19.336)" />
            <path class="a"
                d="M91.86,33.206,93.009,31.5a13.471,13.471,0,0,0,3.5,2,10.078,10.078,0,0,0,3.6.689,6.217,6.217,0,0,0,3.569-.934,2.8,2.8,0,0,0,1.372-2.4,2.318,2.318,0,0,0-.984-1.916,5.1,5.1,0,0,0-2.722-.9c-.277-.029-.679-.057-1.2-.086a17.673,17.673,0,0,1-5.328-.919,4.134,4.134,0,0,1-1.68-1.372,3.255,3.255,0,0,1-.576-1.888,3.74,3.74,0,0,1,1.71-3.145A7.4,7.4,0,0,1,98.7,19.392a12.162,12.162,0,0,1,3.913.653,13.462,13.462,0,0,1,3.669,1.932l-1.15,1.637a10.932,10.932,0,0,0-3.079-1.773,9.526,9.526,0,0,0-3.324-.6,5.686,5.686,0,0,0-2.959.7A2.025,2.025,0,0,0,94.6,23.686a1.571,1.571,0,0,0,.187.761,2.09,2.09,0,0,0,.573.646q.976.734,4.223.934,1.494.086,2.31.186a6.622,6.622,0,0,1,3.82,1.552,4.075,4.075,0,0,1,1.408,3.144,4.385,4.385,0,0,1-1.931,3.662,8.275,8.275,0,0,1-5.062,1.436,13.616,13.616,0,0,1-4.4-.69A13.25,13.25,0,0,1,91.86,33.206Z"
                transform="translate(-56.904 -19.392)" />
            <path class="a" d="M109.678,35.534V19.681h2v6.26h9.348v-6.26H123V35.534h-1.982V27.766h-9.348v7.768Z"
                transform="translate(-53.447 -19.336)" />
            <path class="a"
                d="M128.322,19.681V29.949q0,2.47.927,3.31t3.641.839q2.712,0,3.632-.839t.918-3.31V19.681h1.982v10.8q0,2.93-1.521,4.2t-5.011,1.272q-3.491,0-5.013-1.272t-1.522-4.2v-10.8Z"
                transform="translate(-50.211 -19.336)" />
            <path class="a"
                d="M149.606,19.681a8.326,8.326,0,0,1,6.038,2.211,7.646,7.646,0,0,1,2.29,5.758,7.555,7.555,0,0,1-2.254,5.73,8.43,8.43,0,0,1-6.074,2.154h-6.793V19.681Zm0,1.823H144.78V33.711h4.826a6.312,6.312,0,0,0,4.61-1.644,5.939,5.939,0,0,0,1.679-4.445,5.939,5.939,0,0,0-1.709-4.437A6.25,6.25,0,0,0,149.606,21.5Z"
                transform="translate(-47.017 -19.336)" />
            <path class="a" d="M160.223,35.534V19.681h2v6.26h9.348v-6.26h1.982V35.534h-1.982V27.766h-9.348v7.768Z"
                transform="translate(-43.639 -19.336)" />
        </g>
        <g transform="translate(17.153 8.569)">
            <path class="b"
                d="M59.651,29.817A21.251,21.251,0,1,0,37.185,51.03c2.619-.695,3.445-4,1.421-8.03a25.52,25.52,0,0,0-2.653-4.468c-3.324-4.719-6.266-7.661-7.635-9.826-2.617-4.127-2.285-7.447-.338-9.9,2.756-3.483,8.665-3.348,12.333-.6s1.044,5.376,1.044,5.376l1.136-.183c0,1.7,4.287,5.217,4.287,5.217s-.156.732-.734.732c-.3,0-4.424-3.524-7.217-5.94-.789-.684-3.805-3.075-5.493-2.639-3.631.939-2.854,3.574-1.583,5.6a39.646,39.646,0,0,0,4.512,4.968c.979.937,1.975,1.823,2.831,2.662a50.936,50.936,0,0,1,8.119,9.441,20.256,20.256,0,0,1,2.177,4.565A21.236,21.236,0,0,0,59.651,29.817Z"
                transform="translate(-17.153 -8.569)" />
        </g>
    </g>
</svg>