<svg xmlns="http://www.w3.org/2000/svg" width="18.636" height="17.834" viewBox="0 0 18.636 17.834"><defs><style>.a{fill:none;stroke:#000;stroke-linecap:round;stroke-linejoin:round;}</style></defs><g transform="translate(0.5 0.5)"><path class="a" d="M13.6,30.8a.8.8,0,1,1-.8-.8A.8.8,0,0,1,13.6,30.8Z" transform="translate(-6.389 -14.769)"/><path class="a" d="M30.1,30.8a.8.8,0,1,1-.8-.8A.8.8,0,0,1,30.1,30.8Z" transform="translate(-14.071 -14.769)"/><path class="a" d="M1.5,1.5H4.706L6.855,12.234a1.6,1.6,0,0,0,1.6,1.291H16.25a1.6,1.6,0,0,0,1.6-1.291l1.283-6.726H5.508" transform="translate(-1.5 -1.5)"/></g></svg>