<?xml version="1.0" encoding="utf-8"?>
<!-- Generator: Adobe Illustrator 25.2.2, SVG Export Plug-In . SVG Version: 6.00 Build 0)  -->
<svg version="1.1" id="Layer_1" xmlns="http://www.w3.org/2000/svg" xmlns:xlink="http://www.w3.org/1999/xlink" x="0px" y="0px"
	 viewBox="0 0 33.58 52.43" style="enable-background:new 0 0 33.58 52.43;" xml:space="preserve">
<style type="text/css">
	.st0{fill:#C61F50;}
	.st1{fill:#FFFFFF;}
	.st2{fill:#8C1042;}
	.st3{fill:#9E1047;}
	.st4{fill:#A32B5C;}
	.st5{fill:#9E1E49;}
	.st6{fill:#BBC0E6;}
	.st7{fill:#D0D4F6;}
	.st8{fill:#E9EFFF;}
	.st9{fill:#DB465D;}
	.st10{fill:#5555C6;}
	.st11{fill:#E9EDF7;}
	.st12{fill:#302F2E;}
	.st13{fill:#DDE2F8;}
	.st14{fill:#CED3F8;}
	.st15{fill:#A3A9D0;}
	.st16{fill:#5652CC;}
	.st17{fill:#231633;}
	.st18{fill:#2F1F40;}
	.st19{fill:#323B99;}
	.st20{fill:#20196F;}
	.st21{fill:#F6F6FB;}
	.st22{fill:#FCBA06;}
	.st23{fill:#E19100;}
	.st24{fill:#F8D8D0;}
	.st25{fill:#292533;}
	.st26{fill:#3B46A0;}
	.st27{fill:#FFD03E;}
	.st28{fill:#807DFB;}
	.st29{fill:url(#Path_18_1_);}
	.st30{fill:url(#Path_19_1_);}
	.st31{fill:url(#Path_20_1_);}
	.st32{fill:url(#Path_21_1_);}
	.st33{fill:url(#Path_22_1_);}
	.st34{fill:url(#Path_68_1_);}
</style>
<linearGradient id="Path_68_1_" gradientUnits="userSpaceOnUse" x1="2585.5969" y1="-818.7608" x2="2586.5969" y2="-818.7608" gradientTransform="matrix(33.5808 0 0 -52.434 -86826.4375 -42904.7031)">
	<stop  offset="0.03" style="stop-color:#5F3F91"/>
	<stop  offset="0.506" style="stop-color:#8C2483"/>
	<stop  offset="1" style="stop-color:#E4003F"/>
</linearGradient>
<path id="Path_68" class="st34" d="M33.46,41.59c-0.89-0.58-1.77-1.17-2.66-1.75c-0.86-0.57-1.72-1.14-2.58-1.7
	c-0.74-0.35-1.06-1.24-0.7-1.98c0.01-0.03,0.03-0.05,0.04-0.08c0.06-0.15,0.11-0.3,0.15-0.45l-0.2-0.05l0.23-0.08l0.07-0.25
	c1.56-4.97,2.39-10.14,2.47-15.34c0.01-2.98-0.69-5.92-2.03-8.59C25.75,6.45,21.77,2.5,16.89,0.05L16.8,0l-0.19,0.09
	C12.96,1.98,9.8,4.67,7.35,7.96c-2.3,3.02-3.69,6.64-4.01,10.42c-0.15,2.39-0.04,4.78,0.31,7.15c0.49,3.63,1.29,7.21,2.42,10.7
	c0.29,0.71,0,1.52-0.68,1.88c-0.98,0.64-1.95,1.29-2.92,1.93L0,41.69l0.04,0.15c0.06,0.22,0.11,0.44,0.16,0.66l0.08,0.36l2.35,9.57
	h2.07l0.21-0.02v-0.21c-0.01-0.37,0.01-0.74,0.05-1.11c0.31-2.92,2.79-5.12,5.72-5.07h2.52c0.46,0,0.92,0,1.42-0.01
	c0.37-0.02,0.74,0.11,1.01,0.36c0.25,0.28,0.38,0.66,0.36,1.04c-0.02,1.32-0.01,2.63-0.01,3.95v1.07h1.57l0.03-4.83
	c0.01-0.8,0.11-1.58,1.36-1.58c0,0,0.64,0.01,0.82,0.01c0.33,0,0.66,0,0.99-0.01s0.68-0.01,1.02-0.01c0.7-0.01,1.39,0.03,2.09,0.1
	c2.44,0.37,4.35,2.28,4.72,4.72c0.05,0.42,0.07,0.85,0.07,1.28l0.01,0.32h2.28l0.72-2.96c0.62-2.52,1.24-5.05,1.89-7.65l0.04-0.14
	L33.46,41.59z M9.26,8.17C11.17,5.86,13.44,3.88,16,2.3c0.23-0.15,0.5-0.23,0.78-0.23c0.33,0.01,0.65,0.11,0.92,0.3
	c2.33,1.46,4.43,3.25,6.23,5.33c0.43,0.3,0.57,0.88,0.31,1.35c-0.18,0.32-0.53,0.52-0.91,0.51c-0.09,0-0.17-0.01-0.26-0.02h-0.02
	H10.4c-0.1,0-0.2-0.01-0.34-0.02L8.2,9.43L9.26,8.17z M8.69,44.23c-0.12,0.27-0.35,0.48-0.63,0.58c-1.42,0.55-2.65,1.51-3.52,2.76
	l-1.04,1.42l-1.42-5.71c-0.14-0.55,0.1-1.13,0.6-1.41c1.04-0.69,2.07-1.38,3.1-2.07c0.2-0.15,0.45-0.23,0.7-0.24
	c0.47,0,0.87,0.32,1,0.76c0.29,0.75,0.59,1.5,0.9,2.26l0.27,0.66C8.8,43.56,8.81,43.92,8.69,44.23L8.69,44.23z M23.07,43.4
	c-0.23,0.66-0.87,1.08-1.57,1.03c-0.42-0.01-0.84-0.02-1.25-0.02c-0.43,0-0.85,0.01-1.35,0.02c-0.35,0.02-0.7-0.11-0.96-0.35
	c-0.25-0.28-0.38-0.65-0.35-1.03c0.01-0.97,0.01-1.93,0-2.9c0-1.12,0-2.25,0.01-3.43V36.5l-0.22,0.01c-0.2,0.01-0.4,0.01-0.6,0.01
	s-0.8-0.01-0.8-0.01s0,1.88,0,2.71c0,1.25,0,2.49,0.01,3.74c0.03,0.4-0.11,0.8-0.37,1.11c-0.27,0.26-0.64,0.39-1.02,0.37h-0.13
	c-0.37-0.01-0.75-0.02-1.13-0.02c-0.39,0-0.78,0.01-1.23,0.01h-0.22c-0.59,0.02-1.13-0.34-1.34-0.89
	c-2.53-5.67-4.29-11.65-5.22-17.79c-0.26-1.81-0.4-3.64-0.42-5.47c-0.06-2.84,0.56-5.64,1.8-8.19c0.27-0.61,0.89-0.99,1.56-0.95
	c1.44,0.01,2.88,0.01,4.32,0.01H21c1.41,0,2.81,0,4.24-0.01c0.7-0.04,1.35,0.37,1.61,1.03c1.31,2.74,1.91,5.76,1.76,8.79
	C28.35,27.98,26.58,35.11,23.07,43.4L23.07,43.4z M31.49,43.26l-0.09,0.4l-0.79,3.17c-0.2,0.79-0.69,0.9-0.96,0.9
	c-0.35-0.01-0.68-0.2-0.87-0.5c-0.81-1.08-1.92-1.91-3.18-2.38c-0.31-0.1-0.56-0.33-0.7-0.63c-0.13-0.32-0.11-0.68,0.03-0.99
	c0.4-0.97,0.79-1.95,1.18-2.93c0.13-0.44,0.53-0.75,0.99-0.75c0.24,0.01,0.47,0.08,0.66,0.22c0.84,0.57,1.69,1.14,2.53,1.7
	l0.66,0.44C31.4,42.2,31.61,42.74,31.49,43.26L31.49,43.26z M16.82,15.89c-3.94,0.02-7.12,3.24-7.1,7.18
	c0.02,3.88,3.14,7.04,7.03,7.1h0.01c3.94-0.03,7.12-3.24,7.09-7.19C23.82,19.1,20.7,15.95,16.82,15.89z M16.84,28.54h-0.16
	c-3.01-0.02-5.43-2.47-5.42-5.47c0-0.05,0-0.11,0-0.16c0.01-3,2.46-5.41,5.45-5.4c0.01,0,0.02,0,0.03,0h0.1
	c3.05,0,5.51,2.48,5.51,5.52C22.35,26.08,19.88,28.54,16.84,28.54L16.84,28.54L16.84,28.54z"/>
</svg>
