<?xml version="1.0" encoding="utf-8"?>
<!-- Generator: Adobe Illustrator 25.2.2, SVG Export Plug-In . SVG Version: 6.00 Build 0)  -->
<svg version="1.1" id="Layer_1" xmlns="http://www.w3.org/2000/svg" xmlns:xlink="http://www.w3.org/1999/xlink" x="0px" y="0px"
	 viewBox="0 0 52.46 52.46" style="enable-background:new 0 0 52.46 52.46;" xml:space="preserve">
<style type="text/css">
	.st0{fill:#C61F50;}
	.st1{fill:#FFFFFF;}
	.st2{fill:#8C1042;}
	.st3{fill:#9E1047;}
	.st4{fill:#A32B5C;}
	.st5{fill:#9E1E49;}
	.st6{fill:#BBC0E6;}
	.st7{fill:#D0D4F6;}
	.st8{fill:#E9EFFF;}
	.st9{fill:#DB465D;}
	.st10{fill:#5555C6;}
	.st11{fill:#E9EDF7;}
	.st12{fill:#302F2E;}
	.st13{fill:#DDE2F8;}
	.st14{fill:#CED3F8;}
	.st15{fill:#A3A9D0;}
	.st16{fill:#5652CC;}
	.st17{fill:#231633;}
	.st18{fill:#2F1F40;}
	.st19{fill:#323B99;}
	.st20{fill:#20196F;}
	.st21{fill:#F6F6FB;}
	.st22{fill:#FCBA06;}
	.st23{fill:#E19100;}
	.st24{fill:#F8D8D0;}
	.st25{fill:#292533;}
	.st26{fill:#3B46A0;}
	.st27{fill:#FFD03E;}
	.st28{fill:#807DFB;}
	.st29{fill:url(#Path_18_1_);}
	.st30{fill:url(#Path_19_1_);}
	.st31{fill:url(#Path_20_1_);}
	.st32{fill:url(#Path_21_1_);}
	.st33{fill:url(#Path_22_1_);}
	.st34{fill:url(#Path_68_1_);}
</style>
<g id="Sun">
	<path id="Path_36" class="st1" d="M26.29,0l-2.58,6.42l4.93,0.09L26.29,0z"/>
	<path id="Path_37" class="st1" d="M13.58,3.69l0.98,6.85l4.31-2.38L13.58,3.69z"/>
	<path id="Path_38" class="st1" d="M3.78,13.43l4.27,5.44l2.54-4.23L3.78,13.43z"/>
	<path id="Path_39" class="st1" d="M0,26.17l6.42,2.58l0.08-4.93L0,26.17z"/>
	<path id="Path_40" class="st1" d="M3.69,38.87l6.85-0.98l-2.38-4.31L3.69,38.87z"/>
	<path id="Path_41" class="st1" d="M13.43,48.67l5.44-4.27l-4.23-2.54L13.43,48.67z"/>
	<path id="Path_42" class="st1" d="M26.17,52.46l2.58-6.42l-4.93-0.08L26.17,52.46z"/>
	<path id="Path_43" class="st1" d="M38.87,48.77l-0.98-6.85l-4.31,2.38L38.87,48.77z"/>
	<path id="Path_44" class="st1" d="M48.67,39.03l-4.27-5.44l-2.54,4.23L48.67,39.03z"/>
	<path id="Path_45" class="st1" d="M52.46,26.29l-6.42-2.58l-0.08,4.93L52.46,26.29z"/>
	<path id="Path_46" class="st1" d="M48.77,13.58l-6.85,0.98l2.38,4.31L48.77,13.58z"/>
	<path id="Path_47" class="st1" d="M39.03,3.78l-5.44,4.27l4.23,2.54L39.03,3.78z"/>
	<circle id="Ellipse_68" class="st1" cx="26.23" cy="26.23" r="14.42"/>
</g>
</svg>
