<?xml version="1.0" encoding="utf-8"?>
<!-- Generator: Adobe Illustrator 25.2.2, SVG Export Plug-In . SVG Version: 6.00 Build 0)  -->
<svg version="1.1" id="Layer_1" xmlns="http://www.w3.org/2000/svg" xmlns:xlink="http://www.w3.org/1999/xlink" x="0px" y="0px"
	 viewBox="0 0 50.74 52.46" style="enable-background:new 0 0 50.74 52.46;" xml:space="preserve">
<style type="text/css">
	.st0{fill:#C61F50;}
	.st1{fill:#FFFFFF;}
	.st2{fill:#8C1042;}
	.st3{fill:#9E1047;}
	.st4{fill:#A32B5C;}
	.st5{fill:#9E1E49;}
	.st6{fill:#BBC0E6;}
	.st7{fill:#D0D4F6;}
	.st8{fill:#E9EFFF;}
	.st9{fill:#DB465D;}
	.st10{fill:#5555C6;}
	.st11{fill:#E9EDF7;}
	.st12{fill:#302F2E;}
	.st13{fill:#DDE2F8;}
	.st14{fill:#CED3F8;}
	.st15{fill:#A3A9D0;}
	.st16{fill:#5652CC;}
	.st17{fill:#231633;}
	.st18{fill:#2F1F40;}
	.st19{fill:#323B99;}
	.st20{fill:#20196F;}
	.st21{fill:#F6F6FB;}
	.st22{fill:#FCBA06;}
	.st23{fill:#E19100;}
	.st24{fill:#F8D8D0;}
	.st25{fill:#292533;}
	.st26{fill:#3B46A0;}
	.st27{fill:#FFD03E;}
	.st28{fill:#807DFB;}
	.st29{fill:url(#Path_18_1_);}
	.st30{fill:url(#Path_19_1_);}
	.st31{fill:url(#Path_20_1_);}
	.st32{fill:url(#Path_21_1_);}
	.st33{fill:url(#Path_22_1_);}
	.st34{fill:url(#Path_68_1_);}
</style>
<g id="Group_22" transform="translate(771)">
	
		<linearGradient id="Path_18_1_" gradientUnits="userSpaceOnUse" x1="1661.5399" y1="-818.2227" x2="1661.5399" y2="-819.2227" gradientTransform="matrix(50.7402 0 0 -52.4558 -85052.5547 -42920.5352)">
		<stop  offset="0.03" style="stop-color:#5F3F91"/>
		<stop  offset="0.506" style="stop-color:#8C2483"/>
		<stop  offset="1" style="stop-color:#E4003F"/>
	</linearGradient>
	<path id="Path_18" class="st29" d="M-728.39,52.46h-0.69c-0.38-0.24-0.59-0.68-0.53-1.13c0.02-1.02,0-2.04,0.01-3.06
		c-0.19-1.86,1.16-3.52,3.02-3.7c0.11-0.01,0.23-0.02,0.34-0.02c0.99-0.04,1.77-0.87,1.73-1.86c-0.03-0.92-0.75-1.66-1.67-1.73
		c-0.9-0.09-1.81-0.1-2.71-0.25c-0.52-0.09-1.05,0.13-1.35,0.57c-3.89,4.39-9.48,6.89-15.35,6.88c-3.98,0.05-7.89-1.11-11.21-3.32
		c-0.37-0.24-0.61-0.26-0.93,0.08c-0.67,0.7-1.38,1.37-2.08,2.04c-1.9,1.84-3.81,3.67-5.71,5.51h-0.79
		c-0.65-0.69-0.64-1.11,0.02-1.76c1.02-1,2.04-1.99,3.06-2.98c1.36-1.32,2.71-2.64,4.07-3.96c0.22-0.21,0.36-0.38,0.05-0.64
		c-1.04-0.88-1.99-1.86-2.83-2.92c-0.18-0.22-0.33-0.25-0.52-0.02c-0.25,0.29-0.52,0.57-0.78,0.86c-2.05,2.24-4.1,4.49-6.15,6.73
		c-0.27,0.4-0.82,0.51-1.22,0.23c-0.05-0.03-0.09-0.07-0.13-0.11c-0.36-0.39-0.35-1,0.03-1.38c0.06-0.08,0.13-0.15,0.2-0.23
		c2.27-2.49,4.54-4.99,6.83-7.47c0.3-0.24,0.34-0.68,0.1-0.98c-0.01-0.01-0.01-0.02-0.02-0.02c-2.64-4.32-3.7-9.42-3.02-14.43
		c0.5-4.43,2.39-8.59,5.4-11.88c4.72-5.49,11.99-8.07,19.11-6.78c2.35,0.37,4.6,1.18,6.65,2.39c0.2,0.17,0.51,0.15,0.68-0.05
		c0.02-0.02,0.03-0.04,0.05-0.06c0.3-0.37,0.61-0.71,0.95-1.04c0.32-0.26,0.41-0.71,0.21-1.07c-0.54-1.25-0.29-2.71,0.64-3.71
		c0.84-1.02,2.22-1.42,3.48-1.03c1.79,0.51,2.87,2.32,2.48,4.14c-0.26,1.79-1.92,3.03-3.72,2.77c-0.01,0-0.02,0-0.03,0
		c-0.92-0.32-1.95,0.06-2.43,0.91c-0.24,0.32-0.27,0.45,0.06,0.7c1.49,1.12,2.82,2.43,3.97,3.9c0.29,0.37,0.49,1,0.88,1.04
		c0.43,0.05,0.7-0.59,1.08-0.88c0.37-0.23,0.49-0.7,0.29-1.09c-0.44-1.2-0.16-2.54,0.72-3.46c0.79-0.96,2.08-1.38,3.28-1.06
		c1.29,0.31,2.3,1.31,2.62,2.59v1.74c-0.02,0.05-0.04,0.09-0.06,0.14c-0.5,1.82-2.39,2.9-4.21,2.39c-0.22-0.06-0.43-0.14-0.63-0.24
		c-0.2-0.11-0.44-0.05-0.57,0.13c-0.37,0.36-0.73,0.75-1.12,1.08c-0.36,0.3-0.34,0.55-0.13,0.95c3.72,7.13,3.34,15.7-1,22.47
		c-0.3,0.47-0.28,0.5,0.25,0.55c0.66,0.06,1.32,0.11,1.97,0.2c2,0.37,3.31,2.29,2.94,4.29c-0.31,1.67-1.72,2.9-3.41,3
		c-1.11,0.14-1.54,0.62-1.55,1.77c-0.01,1.02,0,2.04-0.01,3.07C-727.72,51.74-727.96,52.21-728.39,52.46z M-760.19,39.43
		c0.66,0.77,1.37,1.49,2.12,2.16c0.23,0.22,0.54,0.33,0.85,0.32c1.34,0,2.67-0.1,3.99-0.31c5.68-0.84,10.96-3.43,15.1-7.41
		c5-4.68,8.2-10.96,9.08-17.75c0.05-0.27,0-0.54-0.15-0.77c-0.58-0.95-1.24-1.85-1.97-2.69c-0.08-0.1-0.15-0.27-0.3-0.21
		c-0.13,0.05-0.12,0.22-0.14,0.36c-0.95,5.9-3.55,11.42-7.51,15.9c-4.56,5.28-10.81,8.81-17.68,9.99
		C-757.89,39.2-758.99,39.26-760.19,39.43L-760.19,39.43z M-760.59,37.51c0.82-0.01,1.64-0.08,2.46-0.2
		c5.93-0.76,11.46-3.41,15.76-7.56c5.14-4.83,8.4-11.34,9.18-18.35c0.05-0.27-0.07-0.54-0.29-0.7c-0.61-0.5-1.24-0.96-1.9-1.39
		c-0.44-0.28-0.5-0.26-0.59,0.27c-0.57,3.15-1.62,6.18-3.11,9.01c-3.55,6.91-9.61,12.2-16.94,14.79c-2.12,0.76-4.32,1.26-6.55,1.49
		c-0.49,0.05-0.46,0.22-0.26,0.56s0.39,0.67,0.55,1.03C-761.92,37.26-761.44,37.85-760.59,37.51L-760.59,37.51z M-737.63,8.48
		c0.07-0.32-0.11-0.48-0.36-0.59c-0.7-0.3-1.41-0.57-2.14-0.81c-0.35-0.12-0.53-0.01-0.6,0.36c-0.02,0.12-0.06,0.23-0.09,0.34
		c-2,7.41-6.66,13.83-13.08,18.03c-3.05,2.02-6.45,3.44-10.03,4.2c-0.69,0.15-0.7,0.16-0.53,0.88c0.14,0.58,0.32,1.15,0.47,1.72
		c0.1,0.38,0.3,0.54,0.69,0.45c0.13-0.03,0.26-0.05,0.39-0.06c3.04-0.28,6-1.1,8.75-2.41c7.34-3.4,12.92-9.72,15.4-17.43
		C-738.25,11.65-737.87,10.08-737.63,8.48L-737.63,8.48z M-759.34,12.41c0.01,0.1,0.01,0.13,0.02,0.17
		c0.54,4.04,1.88,7.94,3.92,11.47c0.2,0.34,0.38,0.33,0.67,0.14c0.88-0.6,1.73-1.24,2.57-1.91c0.33-0.26,0.33-0.46,0.11-0.79
		c-0.93-1.45-1.73-2.98-2.4-4.57c-0.89-2.09-1.56-4.27-2-6.5c-0.11-0.57-0.16-0.59-0.61-0.25c-0.71,0.53-1.38,1.12-2,1.75
		C-759.21,12.06-759.37,12.22-759.34,12.41L-759.34,12.41z M-754.87,9.04c0.01,0.04,0.03,0.12,0.04,0.2
		c0.22,1.33,0.52,2.63,0.92,3.92c0.76,2.5,1.85,4.89,3.22,7.11c0.12,0.2,0.21,0.51,0.53,0.17c0.85-0.88,1.66-1.8,2.42-2.77
		c0.19-0.21,0.18-0.53-0.02-0.73c-0.53-0.76-1.02-1.55-1.47-2.37c-1.17-2.09-2.12-4.29-2.83-6.57c-0.08-0.26-0.14-0.55-0.53-0.4
		c-0.71,0.28-1.4,0.61-2.07,0.98C-754.81,8.66-754.9,8.85-754.87,9.04L-754.87,9.04z M-745.57,6.27c-1.48,0.01-2.96,0.18-4.41,0.51
		c-0.37,0.09-0.48,0.24-0.36,0.64c0.87,2.8,2.12,5.46,3.7,7.93c0.19,0.29,0.31,0.34,0.52,0.01c1.62-2.57,2.83-5.37,3.61-8.3
		c0.1-0.36,0.02-0.54-0.36-0.59C-743.75,6.35-744.66,6.28-745.57,6.27L-745.57,6.27z M-763.4,18.54c0,0.03,0,0.07,0.01,0.1
		c0.52,2.81,1.42,5.53,2.7,8.08c0.13,0.26,0.28,0.34,0.55,0.23c1.03-0.41,2.05-0.87,3.03-1.38c0.27-0.14,0.32-0.29,0.16-0.55
		c-1.89-3.23-3.21-6.76-3.9-10.43c-0.02-0.12,0.01-0.31-0.16-0.33c-0.13-0.02-0.18,0.14-0.24,0.23c-0.8,1.11-1.47,2.31-2.02,3.56
		C-763.36,18.2-763.4,18.37-763.4,18.54z M-738.55,44.87c-3.04-0.45-6.01-1.33-8.8-2.62c-0.25-0.1-0.53-0.09-0.77,0.03
		c-1.33,0.45-2.69,0.8-4.08,1.03c-0.9,0.15-1.81,0.27-2.72,0.41C-749.95,46.66-743.88,47.09-738.55,44.87L-738.55,44.87z
		 M-745.12,41.15c0.13,0.07,0.18,0.11,0.24,0.13c2.55,1,5.25,1.62,7.98,1.82c1.69,0.13,1.7,0.09,3.05-0.97
		c0.14-0.11,0.29-0.22,0.43-0.35c0.44-0.34,0.84-0.73,1.2-1.16c-0.07-0.12-0.16-0.1-0.24-0.11c-2.34-0.13-4.66-0.58-6.87-1.34
		c-0.91-0.49-2.04-0.36-2.81,0.34c-0.09,0.07-0.19,0.13-0.3,0.18C-743.3,40.17-744.17,40.64-745.12,41.15L-745.12,41.15z
		 M-731.18,38.74c0.55,0.2,0.96-0.22,1.3-0.8c0.26-0.44,0.53-0.86,0.82-1.27c0.2-0.3,0.15-0.45-0.2-0.51
		c-2.08-0.38-4.13-0.9-6.14-1.53c-0.25-0.09-0.54-0.02-0.71,0.19c-0.77,0.79-1.59,1.53-2.45,2.23c-0.1,0.08-0.27,0.15-0.26,0.29
		c0.01,0.2,0.22,0.18,0.35,0.22C-736.1,38.24-733.65,38.64-731.18,38.74L-731.18,38.74z M-727.61,18.94
		c-0.04,0.09-0.08,0.19-0.11,0.29c-0.62,2.9-1.65,5.7-3.05,8.32c-0.18,0.33-0.1,0.48,0.24,0.6c1.09,0.38,2.2,0.7,3.33,0.95
		c0.73,0.17,0.78,0.11,0.85-0.69c0.14-1.39,0.14-2.79,0-4.18C-726.53,22.42-726.95,20.64-727.61,18.94L-727.61,18.94z
		 M-728.21,34.45c0.17,0.04,0.32-0.12,0.43-0.39c0.33-0.82,0.61-1.65,0.84-2.5c0.09-0.33,0.03-0.49-0.33-0.57
		c-1.47-0.3-2.92-0.72-4.32-1.25c-0.2-0.11-0.46-0.04-0.57,0.16c0,0.01-0.01,0.02-0.01,0.03c-0.61,0.95-1.28,1.86-2,2.72
		c-0.18,0.21-0.18,0.36,0.1,0.44C-732.14,33.64-730.18,34.09-728.21,34.45L-728.21,34.45z M-764.49,22.1
		c-0.19,0.58-0.31,1.18-0.36,1.79c-0.17,1.32-0.2,2.65-0.06,3.97c0.04,0.31,0.13,0.47,0.47,0.38c0.59-0.16,1.18-0.29,1.78-0.43
		c0.3-0.07,0.37-0.22,0.23-0.51c-0.22-0.45-0.43-0.92-0.64-1.38C-763.61,24.67-764.05,23.39-764.49,22.1L-764.49,22.1z M-728.8,3.62
		c0.05-0.89-0.64-1.64-1.52-1.69c-0.03,0-0.06,0-0.08,0c-0.9,0.01-1.62,0.75-1.61,1.65c-0.02,0.92,0.7,1.67,1.62,1.7
		c0.9-0.01,1.61-0.75,1.6-1.65C-728.8,3.62-728.8,3.62-728.8,3.62L-728.8,3.62z M-723.64,12.24c0.91-0.03,1.63-0.8,1.6-1.71
		c-0.03-0.89-0.76-1.6-1.65-1.6c-0.9,0.03-1.61,0.78-1.59,1.68C-725.26,11.5-724.53,12.23-723.64,12.24L-723.64,12.24z"/>
</g>
</svg>
